<?xml version="1.0" ?><svg height="256px" version="1.1" viewBox="0 0 230 256" width="230px" xmlns="http://www.w3.org/2000/svg" xmlns:xlink="http://www.w3.org/1999/xlink"><title/><desc/><defs/><g fill="none" fill-rule="evenodd" id="Classic" stroke="none" stroke-width="1"><g id="MaidSafeCoin" transform="translate(-4617.000000, -2488.000000)"><g transform="translate(4617.000000, 2488.000000)"><path d="M185.035445,255.881795 L40.350984,171.868408 C-2.13042714,147.414792 1.05365246,131.459543 1.15784713e-05,97.4304159 L148.841144,183.574242 L148.841144,104.875373 L185.000826,84.6709406 L185.035445,255.881795 Z" fill="#9DBFE5" id="Fill-1"/><path d="M148.84119,183.574208 L-5.78923564e-05,97.4303812 L144.626627,14.4706345 C187.131311,-9.97151841 198.860186,0.669096698 229.693771,17.7358791 L80.8176716,103.810119 L148.84119,143.165343 L148.84119,183.574208 Z" fill="#5D95D4" id="Fill-3"/><path d="M80.8177295,103.81013 L229.751606,17.7241965 L229.751606,183.655384 C229.751606,233.639529 214.815378,237.888828 185.081863,255.962937 L185.081863,84.6709174 L117.289914,124.952535 L80.8177295,103.81013 Z" fill="#2F5A88" id="Fill-6"/></g></g></g></svg>